<svg xmlns="http://www.w3.org/2000/svg" xmlns:xlink="http://www.w3.org/1999/xlink" width="1920" height="1080" viewBox="0 0 1920 1080"><defs><clipPath id="a"><rect width="1920" height="1077" fill="#060039"/></clipPath></defs><g opacity="0.251"><rect width="1920" height="1077" fill="#060039"/><g transform="translate(0 3)" clip-path="url(#a)"><g transform="translate(-21.483 -109.318)"><path d="M141.087,0c0,29.393-31.583,53.219-70.543,53.219S0,29.393,0,0" transform="translate(1821.86 916.658)" fill="none" stroke="#44ab96" stroke-linecap="round" stroke-linejoin="round" stroke-miterlimit="10" stroke-width="10.947"/><path d="M88.333,133.048C39.544,133.048,0,103.265,0,66.524S39.544,0,88.333,0" transform="translate(1874.614 9.176)" fill="none" stroke="#e53855" stroke-linecap="round" stroke-linejoin="round" stroke-miterlimit="10" stroke-width="10.947"/><path d="M0,62.309c0,30.406,32.957,55.055,73.61,55.055s73.611-24.649,73.611-55.055V0" transform="translate(689.485 0.918)" fill="none" stroke="#44ab96" stroke-linecap="round" stroke-linejoin="round" stroke-miterlimit="10" stroke-width="10.947"/><path d="M165.912,246.828C74.282,246.828,0,191.578,0,123.414S74.282,0,165.912,0h151.84" transform="translate(2.454 1048.788)" fill="none" stroke="#ffb017" stroke-linecap="round" stroke-linejoin="round" stroke-miterlimit="10" stroke-width="10.947"/><path d="M55.183,79.829C24.706,79.829,0,61.96,0,39.915S24.706,0,55.183,0H114.1" transform="translate(103.055 1131.37)" fill="none" stroke="#44ab96" stroke-linecap="round" stroke-linejoin="round" stroke-miterlimit="10" stroke-width="10.947"/><path d="M326.34,0H85.421C38.244,0,0,27.936,0,62.4" transform="translate(0 0.918)" fill="none" stroke="#44ab96" stroke-linecap="round" stroke-linejoin="round" stroke-miterlimit="10" stroke-width="10.947"/><path d="M-287.153,0H21.693C82.084-.065,131.112,36.5,131.2,81.664" transform="translate(1658.761 2.753)" fill="none" stroke="#4484ab" stroke-linecap="round" stroke-linejoin="round" stroke-miterlimit="10" stroke-width="10.947"/><path d="M147.221,209.231V54.786c0-30.406-32.957-55.055-73.611-55.055S0,24.38,0,54.786V78.691" transform="translate(1815.725 214.688)" fill="none" stroke="#da774a" stroke-linecap="round" stroke-linejoin="round" stroke-miterlimit="10" stroke-width="10.947"/><ellipse cx="49.074" cy="36.703" rx="49.074" ry="36.703" transform="translate(672.309 323.904)" stroke-width="10.947" stroke="#44ab96" stroke-linecap="round" stroke-linejoin="round" stroke-miterlimit="10" fill="none"/><ellipse cx="71.157" cy="52.761" rx="71.157" ry="52.761" transform="translate(785.179 1044.201)" stroke-width="10.947" stroke="#e53855" stroke-linecap="round" stroke-linejoin="round" stroke-miterlimit="10" fill="none"/><ellipse cx="77.291" cy="57.807" rx="77.291" ry="57.807" transform="translate(148.448 178.01)" stroke-width="10.947" stroke="#44ab96" stroke-linecap="round" stroke-linejoin="round" stroke-miterlimit="10" fill="none"/><path d="M172.371,254.168c95.2,0,172.371-56.9,172.371-127.084S267.574,0,172.371,0,0,56.9,0,127.084" transform="translate(53.981 107.356)" fill="none" stroke="#ffb017" stroke-linecap="round" stroke-linejoin="round" stroke-miterlimit="10" stroke-width="10.947"/><path d="M6.392,97.682C-19.8,170.918,36.857,245.922,132.923,265.214s195.19-24.452,221.375-97.688S323.835,19.29,227.768,0" transform="translate(1602.255 1025.849)" fill="none" stroke="#44ab96" stroke-linecap="round" stroke-linejoin="round" stroke-miterlimit="10" stroke-width="10.947"/><path d="M70.543,0C31.583,0,0,23.622,0,52.761s31.583,52.761,70.543,52.761S141.087,81.9,141.087,52.761V0" transform="translate(332.474 379.876)" fill="none" stroke="#44ab96" stroke-linecap="round" stroke-linejoin="round" stroke-miterlimit="10" stroke-width="10.947"/><path d="M0,70.195c0,38.768,41.745,70.195,93.24,70.195s93.24-31.427,93.24-70.195S144.735,0,93.24,0H0" transform="translate(424.487 0.918)" fill="none" stroke="#e53855" stroke-linecap="round" stroke-linejoin="round" stroke-miterlimit="10" stroke-width="10.947"/><path d="M81.585,120.736C36.527,120.736,0,93.709,0,60.368S36.527,0,81.585,0,163.17,27.027,163.17,60.368V244.993" transform="translate(6.134 674.418)" fill="none" stroke="#44ab96" stroke-linecap="round" stroke-linejoin="round" stroke-miterlimit="10" stroke-width="10.947"/><path d="M172.97,55.972c0,30.912,32.968,55.972,73.625,55.972s73.61-25.06,73.61-55.972S287.254,0,246.6,0H0" transform="translate(1620.658 742.318)" fill="none" stroke="#44ab96" stroke-linecap="round" stroke-linejoin="round" stroke-miterlimit="10" stroke-width="10.947"/><path d="M78.518,128.269C35.154,128.269,0,154.193,0,186.168s35.154,57.907,78.518,57.907,78.518-25.924,78.518-57.9V0" transform="translate(1106.611)" fill="none" stroke="#4484ab" stroke-linecap="round" stroke-linejoin="round" stroke-miterlimit="10" stroke-width="10.947"/><path d="M41.613,53.219C41.613,23.827,73.219,0,112.207,0S182.8,23.827,182.8,53.219s-31.6,53.219-70.594,53.219H0" transform="translate(1080.847 1189.177)" fill="none" stroke="#44ab96" stroke-linecap="round" stroke-linejoin="round" stroke-miterlimit="10" stroke-width="10.947"/><path d="M70.543,143.672c38.718.146,69.966,23.714,69.836,52.672s-31.589,52.369-70.308,52.32S0,225.126,0,196.167V0" transform="translate(1266.1 372.536)" fill="none" stroke="#da774a" stroke-linecap="round" stroke-linejoin="round" stroke-miterlimit="10" stroke-width="10.947"/><path d="M70.543,160.308C31.584,160.308,0,183.578,0,212.285s31.584,51.977,70.543,51.977,70.543-23.271,70.543-51.977V0" transform="translate(6.134 361.525)" fill="none" stroke="#da774a" stroke-linecap="round" stroke-linejoin="round" stroke-miterlimit="10" stroke-width="10.947"/><path d="M248.681,94.51c0-52.2-55.67-94.51-124.343-94.51S0,42.314,0,94.51s55.67,94.51,124.343,94.51H450.251" transform="translate(596.245 267.014)" fill="none" stroke="#ffb017" stroke-linecap="round" stroke-linejoin="round" stroke-miterlimit="10" stroke-width="10.947"/><path d="M325.9,189.02c68.686,0,124.349-42.314,124.349-94.51S394.588,0,325.9,0H0" transform="translate(1512.696 478.057)" fill="none" stroke="#44ab96" stroke-linecap="round" stroke-linejoin="round" stroke-miterlimit="10" stroke-width="10.947"/><path d="M0,88.546C0,39.639,52.434,0,117.117,0H237.442c64.686,0,117.115,39.639,117.115,88.546h0c0,48.907-52.429,88.546-117.117,88.546H117.117C52.434,177.092,0,137.453,0,88.546Z" transform="translate(1358.114 72.488)" fill="none" stroke="#da774a" stroke-linecap="round" stroke-linejoin="round" stroke-miterlimit="10" stroke-width="10.947"/><path d="M73,264.262c-40.281.025-72.963-24.377-73-54.5V54.5C.034,24.377,32.716-.025,73,0h0c40.281-.025,72.963,24.377,73,54.5V209.758c-.034,30.127-32.716,54.529-73,54.5Z" transform="translate(253.956 534.946)" fill="none" stroke="#ffb017" stroke-linecap="round" stroke-linejoin="round" stroke-miterlimit="10" stroke-width="10.947"/><path d="M0,124.331V42.361C.114,18.881,25.655-.084,57.048,0h0C88.442-.084,113.983,18.881,114.1,42.361V206.3c-.114,23.48-25.655,42.445-57.048,42.361h0C25.655,248.747.114,229.782,0,206.3V186.5" transform="translate(1015.825 605.6)" fill="none" stroke="#e53855" stroke-linecap="round" stroke-linejoin="round" stroke-miterlimit="10" stroke-width="10.947"/><path d="M197.521,290.807v7.146c-.074,40.739-44.291,73.72-98.761,73.665h0C44.291,371.673.074,338.693,0,297.954V73.664C.074,32.925,44.291-.055,98.761,0h0c54.47-.055,98.686,32.925,98.761,73.664v2.2" transform="translate(923.812 0.918)" fill="none" stroke="#ffb017" stroke-linecap="round" stroke-linejoin="round" stroke-miterlimit="10" stroke-width="10.947"/><path d="M81.892,0h-5.9C34,.015-.021,25.486,0,56.89H0c-.021,31.4,34,56.874,75.989,56.89H251.577c41.989-.015,76.01-25.486,75.989-56.89h0c.021-31.4-34-56.874-75.989-56.89h-5.9" transform="translate(6.134 873.532)" fill="none" stroke="#ffb017" stroke-linecap="round" stroke-linejoin="round" stroke-miterlimit="10" stroke-width="10.947"/><path d="M0,0V212.544c0,63.529,69.483,115.03,155.2,115.03s155.2-51.5,155.2-115.03V162.327" transform="translate(921.358 605.6)" fill="none" stroke="#44ab96" stroke-linecap="round" stroke-linejoin="round" stroke-miterlimit="10" stroke-width="10.947"/><path d="M0,0H254.938c97.028,0,175.684,59.157,175.684,132.131S351.966,264.262,254.938,264.262H178.245" transform="translate(609.74 965.289)" fill="none" stroke="#44ab96" stroke-linecap="round" stroke-linejoin="round" stroke-miterlimit="10" stroke-width="10.947"/><path d="M133.8,110.109H73.453C32.8,110.109-.157,85.46-.157,55.055S32.8,0,73.453,0H194.141c40.591.047,73.445,24.7,73.382,55.055v4.891c.058,27.662-29.878,50.121-66.863,50.164" transform="translate(585.131 533.111)" fill="none" stroke="#4484ab" stroke-linecap="round" stroke-linejoin="round" stroke-miterlimit="10" stroke-width="10.947"/><path d="M152.742,118.367h68.925c46.288,0,83.817-26.5,83.817-59.184S267.954,0,221.667,0H83.817C37.525,0,0,26.5,0,59.184" transform="translate(1183.902 314.728)" fill="none" stroke="#44ab96" stroke-linecap="round" stroke-linejoin="round" stroke-miterlimit="10" stroke-width="10.947"/><path d="M354.557,0H189.325C84.764,0,0,63.68,0,142.224" transform="translate(473.561 186.268)" fill="none" stroke="#44ab96" stroke-linecap="round" stroke-linejoin="round" stroke-miterlimit="10" stroke-width="10.947"/><path d="M70.543,288.889c38.961,0,70.543,23.453,70.543,52.375S109.5,393.64,70.543,393.64,0,370.187,0,341.265V0" transform="translate(1707.763 818.477)" fill="none" stroke="#e53855" stroke-linecap="round" stroke-linejoin="round" stroke-miterlimit="10" stroke-width="10.947"/><path d="M0,97.263C0,43.547,57.474,0,128.371,0H354.557" transform="translate(1250.151 1044.201)" fill="none" stroke="#44ab96" stroke-linecap="round" stroke-linejoin="round" stroke-miterlimit="10" stroke-width="10.947"/><path d="M0,110.109H120.688c81.055,0,146.763-49.3,146.763-110.109" transform="translate(916.451 423.002)" fill="none" stroke="#4484ab" stroke-linecap="round" stroke-linejoin="round" stroke-miterlimit="10" stroke-width="10.947"/><path d="M214.7,0V49.324c0,49.78-53.977,90.149-120.559,90.147H0" transform="translate(1405.96 820.312)" fill="none" stroke="#4484ab" stroke-linecap="round" stroke-linejoin="round" stroke-miterlimit="10" stroke-width="10.947"/><path d="M238.007,0H134.944C60.412,0,0,45.6,0,101.851" transform="translate(1610.843 574.402)" fill="none" stroke="#da774a" stroke-linecap="round" stroke-linejoin="round" stroke-miterlimit="10" stroke-width="10.947"/><path d="M0,182.6V98.99C0,50.85,50.27,10.525,117.777,0" transform="translate(267.451 1113.019)" fill="none" stroke="#44ab96" stroke-linecap="round" stroke-linejoin="round" stroke-miterlimit="10" stroke-width="10.947"/><path d="M.421,0V168.834" transform="translate(54.173 299.129)" fill="none" stroke="#44ab96" stroke-linecap="round" stroke-linejoin="round" stroke-miterlimit="10" stroke-width="10.947"/><path d="M0,.421H464.973" transform="translate(534.903 1294.736)" fill="none" stroke="#44ab96" stroke-linecap="round" stroke-linejoin="round" stroke-miterlimit="10" stroke-width="10.947"/><path d="M.421,0V139.471" transform="translate(1334.996 687.264)" fill="none" stroke="#44ab96" stroke-linecap="round" stroke-linejoin="round" stroke-miterlimit="10" stroke-width="10.947"/><path d="M.421,0V56.89" transform="translate(1146.062 1066.222)" fill="none" stroke="#44ab96" stroke-linecap="round" stroke-linejoin="round" stroke-miterlimit="10" stroke-width="10.947"/><path d="M253.956,43.971V62.579c-.051,26.286-28.58,47.565-63.726,47.53h0c-35.152.041-63.691-21.24-63.743-47.53V47.163C126.435,21.081,98.126-.033,63.252,0h0C28.373-.039.054,21.076,0,47.163V66.138" transform="translate(1562.996 313.811)" fill="none" stroke="#e53855" stroke-linecap="round" stroke-linejoin="round" stroke-miterlimit="10" stroke-width="10.947"/><path d="M0,66.953C.013,29.968,40.109-.007,89.559,0h0c49.465,0,89.553,29.979,89.559,66.964v48.682C179.1,152.63,139.009,182.6,89.559,182.6h0C40.092,182.6,0,152.617,0,115.632Z" transform="translate(1336.03 1113.019)" fill="none" stroke="#4484ab" stroke-linecap="round" stroke-linejoin="round" stroke-miterlimit="10" stroke-width="10.947"/><g transform="translate(380.235 539.534)"><path d="M0,0V58.986c0,71.846,77.782,130.095,173.744,130.095h69.2c57.753.056,104.534,35.084,104.543,78.278h0" transform="translate(111.437)" fill="none" stroke="#da774a" stroke-linecap="round" stroke-linejoin="round" stroke-miterlimit="10" stroke-width="10.947"/><path d="M320.612,0H100.47C44.982,0,0,33.465,0,74.746s44.982,74.746,100.47,74.746h90.859" transform="translate(138.313 346.418)" fill="none" stroke="#da774a" stroke-linecap="round" stroke-linejoin="round" stroke-miterlimit="10" stroke-width="10.947"/><path d="M83.256,182.553H70.129c-38.764,0-70.188-23.5-70.188-52.494S31.365,77.564,70.129,77.564H226.653C283.9,77.539,330.272,42.812,330.237,0" transform="translate(0.059 573.529)" fill="none" stroke="#da774a" stroke-linecap="round" stroke-linejoin="round" stroke-miterlimit="10" stroke-width="10.947"/></g></g></g></g></svg>